<?xml version="1.0" encoding="UTF-8"?>
<svg width="22px" height="22px" viewBox="0 0 22 22" version="1.1" xmlns="http://www.w3.org/2000/svg" xmlns:xlink="http://www.w3.org/1999/xlink">
    <!-- Generator: Sketch 48.2 (47327) - http://www.bohemiancoding.com/sketch -->
    <title>coin</title>
    <desc>Created with Sketch.</desc>
    <defs>
        <linearGradient x1="50%" y1="0%" x2="50%" y2="100%" id="linearGradient-1">
            <stop stop-color="#FFCA40" offset="0%"></stop>
            <stop stop-color="#FFA21E" offset="100%"></stop>
        </linearGradient>
    </defs>
    <g id="Desktop-HD" stroke="none" stroke-width="1" fill="none" fill-rule="evenodd" transform="translate(-801.000000, -1580.000000)">
        <g id="coin" transform="translate(800.000000, 1579.000000)">
            <rect x="0" y="0" width="24" height="24"></rect>
            <path d="M14.9249473,15.9738125 C14.3265895,16.3722128 13.6038976,16.6728757 12.7449725,16.7342355 L12.7449725,18 L11.2432498,18 L11.2432498,16.7142935 C10.3250717,16.6167753 9.66454688,16.3707884 9.10771472,15.9671287 C8.3702096,15.4366953 8.14497549,14.869994 8,14.1589876 L10.2598692,13.660549 C10.2598692,14.3301375 11.0270008,15.0971347 12.170413,15.0971347 C12.8515792,15.0971347 13.666186,14.7964718 13.6573224,13.9958363 C13.6513728,13.3411494 12.8841198,12.8719663 12.0548211,12.7035556 C11.195896,12.5297759 9.460197,11.9966033 8.98046656,11.5208459 C8.49745777,11.0477182 8.36426002,10.3754999 8.36426002,9.59360105 C8.36426002,8.92149236 8.6961009,8.24248069 9.23508431,7.83213718 C9.75925448,7.43264121 10.3724255,7.17602586 11.2432498,7.07982249 L11.2432498,6 L12.7449725,6 L12.7449725,7.07576837 C13.5683215,7.15597436 14.2466951,7.38990851 14.7679512,7.7908289 C15.4165769,8.29332165 15.7453822,8.93748973 15.7453822,9.32504246 L13.4883057,9.80353914 C13.4883057,9.3010464 12.6530575,8.68087438 12.0844476,8.68087438 C11.3469425,8.68087438 10.7633979,8.8680217 10.7633979,9.70054238 C10.7633979,10.2993481 11.2670481,10.4944941 12.1407865,10.7470553 C13.6098472,11.169342 14.7235115,11.7186216 15.2359039,12.1930642 C15.7453822,12.670246 16,13.2702569 16,13.9958363 C16,14.8927847 15.6297904,15.4981647 14.9249473,15.9738125 M12,1 C5.92424792,1 1,5.92556593 1,12.0000587 C1,18.0743166 5.92424792,23 12,23 C18.0729338,23 23,18.0743166 23,12.0000587 C23,5.92556593 18.0729338,1 12,1" id="Fill-1" fill="url(#linearGradient-1)"></path>
        </g>
    </g>
</svg>