<?xml version="1.0" encoding="UTF-8"?>
<svg width="17px" height="22px" viewBox="0 0 17 22" version="1.1" xmlns="http://www.w3.org/2000/svg" xmlns:xlink="http://www.w3.org/1999/xlink">
    <!-- Generator: Sketch 48.2 (47327) - http://www.bohemiancoding.com/sketch -->
    <title>customer</title>
    <desc>Created with Sketch.</desc>
    <defs>
        <linearGradient x1="83.882582%" y1="90.198268%" x2="14.1770773%" y2="0.467385795%" id="linearGradient-1">
            <stop stop-color="#86D37F" offset="0%"></stop>
            <stop stop-color="#D7E900" offset="100%"></stop>
        </linearGradient>
    </defs>
    <g id="Desktop-HD" stroke="none" stroke-width="1" fill="none" fill-rule="evenodd" transform="translate(-804.000000, -1496.000000)">
        <g id="customer" transform="translate(800.000000, 1495.000000)">
            <rect id="Rectangle-8" x="0" y="0" width="24" height="24"></rect>
            <path d="M12.4001778,1.00343515 C12.8015854,1.00354596 13.2012109,1.05163799 13.5910352,1.14638151 C13.9745108,1.23691421 14.3477397,1.36567675 14.7052642,1.53056373 C15.0331621,1.68004795 15.3440191,1.86421606 15.632489,2.07974372 C15.8686111,2.25637668 16.08023,2.46315026 16.2618881,2.69496716 C16.6170737,3.15937664 16.88505,3.68362413 17.0528972,4.24277713 C17.2084927,4.77156788 17.3251059,5.31099649 17.4017342,5.85663054 C17.4771373,6.44603498 17.5140035,7.03965024 17.5122215,7.63381956 C17.6090093,7.7108333 17.6874196,7.80823629 17.741995,7.91893662 C17.8006914,8.04492888 17.8435721,8.17768062 17.8695233,8.31419994 C17.9062781,8.50967079 17.9119584,8.70946327 17.8865641,8.9067071 C17.8660705,9.15957811 17.8058148,9.40779506 17.7079133,9.6420498 C17.6315077,9.80139622 17.5278145,9.94622638 17.4017342,10.0703349 C17.2919151,10.1799271 17.1579269,10.2624814 17.0105734,10.3115707 C16.9463081,10.5468227 16.8782559,10.7809667 16.8065282,11.0140025 C16.7297886,11.204376 16.6532716,11.3905387 16.5681786,11.5741528 C16.491773,11.7334992 16.3881911,11.8784402 16.2618881,12.0024378 C16.0426955,12.184833 15.8271784,12.3716606 15.6155595,12.562699 C15.424657,12.7808861 15.3084894,13.0539247 15.2837634,13.3421445 C15.2440013,13.5628803 15.2297449,13.7874945 15.2412169,14.0114438 C15.2611536,14.2458093 15.3215206,14.4747451 15.4198677,14.6884998 C15.535924,14.9323951 15.697534,15.1521336 15.896233,15.3358585 C16.1643207,15.571443 16.4725046,15.7574949 16.8065282,15.8851493 C17.1747451,16.0403957 17.5526518,16.1724826 17.9376868,16.2804126 C18.3414333,16.3954346 18.7388313,16.5310674 19.1285442,16.6866463 C19.496761,16.8284845 19.8431477,17.0207418 20.1577915,17.2579885 C20.4625227,17.4946811 20.6855022,17.8201334 20.7957668,18.188802 C20.8727292,18.472811 20.9239632,18.7631362 20.948912,19.0562316 C20.9831051,19.4029597 21.0000347,19.7512391 20.9999233,20.0996293 C21.001594,20.4306222 20.9759769,20.7612826 20.9234063,21.0880646 C20.8975666,21.3334005 20.8255048,21.5717552 20.7107851,21.7904964 C20.5450541,21.9462969 20.33867,22.0527864 20.1153564,22.0977757 C19.721077,22.2177842 19.3207832,22.3166277 18.9159229,22.3939739 C18.4310929,22.4888282 17.9037164,22.5733771 17.3082877,22.6478422 C16.7197645,22.7215316 16.1299047,22.7840291 15.5390426,22.8348914 C14.9670033,22.884424 14.3941845,22.9247592 13.8208087,22.956008 C13.2763913,22.9855946 12.8001375,23 12.4002892,23 C12.0004409,23 11.5326518,22.9855946 10.9968105,22.956008 C10.4608579,22.9263106 9.9164405,22.8865294 9.34662884,22.8348914 C8.78160645,22.7838075 8.2173637,22.7250776 7.65390061,22.6588125 C7.09244233,22.5927691 6.58210671,22.5234013 6.12289375,22.4507092 C5.66356942,22.3779063 5.28076202,22.3044385 4.95754203,22.2307491 C4.74581178,22.1995003 4.5429918,22.124592 4.36200197,22.010789 C4.14971483,21.6919853 4.03722269,21.3175545 4.03878199,20.9351453 C3.96504952,20.1583592 3.99656959,19.3753677 4.13233981,18.6070033 C4.16775812,18.1302938 4.38717348,17.6857195 4.74480938,17.3663618 C5.09698773,17.0748177 5.4969474,16.8458819 5.92720198,16.6894165 C6.38752872,16.5171052 6.8558747,16.3669561 7.33068063,16.2391909 C7.7872205,16.119404 8.22103919,15.9264818 8.61509581,15.6679595 C8.86146473,15.5172563 9.0848897,15.3323125 9.27857666,15.1186687 C9.41902477,14.9633114 9.53129415,14.7850163 9.6102614,14.5914293 C9.68499628,14.4180098 9.72264216,14.2308498 9.72086011,14.0421385 C9.72086011,13.8519865 9.71228397,13.6395616 9.69524308,13.4048636 C9.68599868,13.10656 9.568049,12.8216646 9.36344697,12.6033666 C9.15594909,12.393712 8.9403206,12.1921465 8.71711838,11.9991135 C8.5940453,11.8761131 8.49580959,11.7307289 8.42786879,11.5708285 C8.34990394,11.3846658 8.27338702,11.197949 8.19820663,11.0106782 C8.12625621,10.7777532 8.05820403,10.5434984 7.99416148,10.3082464 C7.88935445,10.274449 7.79145288,10.2222569 7.70502327,10.1542189 C7.60233243,10.0630213 7.5108908,9.95985615 7.43281458,9.84705041 C7.31854038,9.67196881 7.235118,9.478825 7.18611152,9.275819 C7.10435981,9.06006971 7.07239422,8.82869606 7.0925537,8.59887376 C7.10692151,8.41913809 7.14412188,8.24195108 7.20315241,8.07152355 C7.26452188,7.90242576 7.35685454,7.74607124 7.47536111,7.6103276 C7.46121606,7.05272595 7.48961754,6.49490269 7.56034279,5.94151187 C7.62126675,5.42978603 7.720839,4.92337914 7.85816851,4.42661281 C7.99271356,3.91012209 8.21413373,3.42000443 8.51307323,2.9769815 C8.75064326,2.59767498 9.04958277,2.25992263 9.3977515,1.97746504 C9.70114614,1.73312649 10.0358381,1.53000967 10.3929171,1.37321191 C10.7189215,1.23115203 11.0619669,1.13164363 11.4135883,1.07701374 C11.7401497,1.02659467 12.0700524,1.00088649 12.4004006,1 L12.4004006,1.00343515 L12.4001778,1.00343515 Z" id="Fill-1" fill="url(#linearGradient-1)"></path>
        </g>
    </g>
</svg>