<?xml version="1.0" encoding="UTF-8"?>
<svg width="68px" height="67px" viewBox="0 0 68 67" version="1.1" xmlns="http://www.w3.org/2000/svg" xmlns:xlink="http://www.w3.org/1999/xlink">
    <!-- Generator: Sketch 48.2 (47327) - http://www.bohemiancoding.com/sketch -->
    <title>dapp</title>
    <desc>Created with Sketch.</desc>
    <defs>
        <linearGradient x1="83.882582%" y1="90.198268%" x2="14.1770773%" y2="0.467385795%" id="linearGradient-1">
            <stop stop-color="#86D37F" offset="0%"></stop>
            <stop stop-color="#D7E900" offset="100%"></stop>
        </linearGradient>
    </defs>
    <g id="Desktop-HD" stroke="none" stroke-width="1" fill="none" fill-rule="evenodd" transform="translate(-1033.000000, -1000.000000)">
        <g id="dapp" transform="translate(1031.000000, 997.000000)">
            <rect id="Rectangle-5" x="0" y="0" width="72" height="72"></rect>
            <path d="M68.5315544,17.6428398 C69.5106545,18.5954882 70,19.7145416 70,21 C70,22.2858565 69.5106545,23.381024 68.5315544,24.2859007 L54.8769338,37.5716245 C53.8978337,38.5238748 52.7599827,39 51.4629718,39 C50.1659608,39 49.028519,38.5238748 48.0494189,37.5716245 L34.3947982,24.2859007 C33.4647964,23.381024 33,22.2858565 33,21 C33,19.7141435 33.4647964,18.5954882 34.3947982,17.6428398 L48.0494189,4.357116 C49.028519,3.4522393 50.1659608,3 51.4629718,3 C52.7599827,3 53.8978337,3.4522393 54.8769338,4.357116 L68.5315544,17.6428398 Z M58.5362483,43 C59.7838035,43 60.8399518,43.4317817 61.7038909,44.2957464 C62.5674286,45.1597111 63,46.2154896 63,47.4638844 L63,65.5361156 C63,66.7841091 62.5678299,67.8398876 61.7038909,68.7038523 C60.8399518,69.5682183 59.7838035,70 58.5362483,70 L40.536382,70 C39.2884255,70 38.220239,69.5682183 37.3322236,68.7038523 C36.4442083,67.8398876 36,66.7841091 36,65.5361156 L36,47.4638844 C36,46.2154896 36.4442083,45.1597111 37.3322236,44.2957464 C38.220239,43.4317817 39.2884255,43 40.536382,43 L58.5362483,43 Z M24.4639518,43 C25.7119269,43 26.779728,43.4317817 27.6677566,44.2957464 C28.5557851,45.1597111 29,46.2154896 29,47.4638844 L29,65.5361156 C29,66.7841091 28.5557851,67.8398876 27.6677566,68.7038523 C26.779728,69.5682183 25.7119269,70 24.4639518,70 L6.46421937,70 C5.21584306,70 4.16008026,69.5682183 3.29612841,68.7038523 C2.43217656,67.8398876 2,66.7841091 2,65.5361156 L2,47.4638844 C2,46.2154896 2.43217656,45.1597111 3.29612841,44.2957464 C4.16008026,43.4317817 5.21584306,43 6.46421937,43 L24.4639518,43 Z M24.4639518,9 C25.7119269,9 26.779728,9.4317817 27.6677566,10.2957464 C28.5557851,11.1597111 29,12.2158909 29,13.4638844 L29,31.4638844 C29,32.711878 28.5557851,33.7800963 27.6677566,34.668138 C26.779728,35.5561798 25.7119269,36 24.4639518,36 L6.46421937,36 C5.21584306,36 4.16008026,35.5561798 3.29612841,34.668138 C2.43217656,33.7800963 2,32.711878 2,31.4638844 L2,13.4638844 C2,12.2158909 2.43217656,11.1597111 3.29612841,10.2957464 C4.16008026,9.4317817 5.21584306,9 6.46421937,9 L24.4639518,9 Z" id="Fill-1" fill="url(#linearGradient-1)"></path>
        </g>
    </g>
</svg>