<?xml version="1.0" encoding="UTF-8"?>
<svg width="366px" height="202px" viewBox="0 0 366 202" version="1.1" xmlns="http://www.w3.org/2000/svg" xmlns:xlink="http://www.w3.org/1999/xlink">
    <!-- Generator: Sketch 48.2 (47327) - http://www.bohemiancoding.com/sketch -->
    <title>Page 1</title>
    <desc>Created with Sketch.</desc>
    <defs></defs>
    <g id="Desktop-HD" stroke="none" stroke-width="1" fill="none" fill-rule="evenodd" transform="translate(-231.000000, -1411.000000)">
        <g id="Page-1" transform="translate(231.000000, 1411.000000)">
            <path d="M161.400818,104 C164.014145,101.470062 167.774911,99.3423983 172.514927,97.829776 C175.14106,96.9933545 176.596703,94.1662324 175.766858,91.5165592 C174.937014,88.8677475 172.135862,87.3973339 169.509729,88.2354782 C163.575318,90.1279789 159.213512,92.6045102 156,95.2938079 L161.400818,104 Z" id="Fill-1" fill="#4C4C4C"></path>
            <path d="M217.359356,105 C214.804536,102.441674 211.088357,100.249792 206.372689,98.6398108 C203.760486,97.7474503 202.373878,94.9278626 203.274874,92.3406957 C204.174156,89.7535289 207.022742,88.3793616 209.634088,89.2725703 C215.536809,91.2880157 219.846515,93.8387077 223,96.5683808 L217.359356,105 Z" id="Fill-3" fill="#4C4C4C"></path>
            <path d="M181.958215,83 L196.041785,83 C204.302888,83 211,89.6504975 211,97.8541001 L211,130 L167,130 L167,97.8541001 C167,89.6504975 173.697112,83 181.958215,83" id="Fill-5" fill="#333333"></path>
            <path d="M211,130 C211,135.304695 208.501014,140.020919 204.617386,143.073191 L204.617386,192 L193.813098,192 L193.813098,146.66743 L183.755955,146.66743 C183.468656,146.66743 183.188158,146.638683 182.90341,146.62431 L182.90341,192 L172.099121,192 L172.099121,141.958816 C168.959239,138.929373 167,134.695087 167,130 L211,130 Z" id="Fill-7" fill="#1F8EAD"></path>
            <path d="M192.906495,192 L202.945375,192 C204.632233,192 206,193.430434 206,195.194577 L206,202 L187,202 L187,198.176241 C187,194.766142 189.64496,192 192.906495,192" id="Fill-9" fill="#FF5E5E"></path>
            <path d="M170.905664,192 L180.945375,192 C182.631402,192 184,193.430434 184,195.194577 L184,202 L165,202 L165,198.176241 C165,194.766142 167.643298,192 170.905664,192" id="Fill-11" fill="#FF5E5E"></path>
            <path d="M189,23 C199.493085,23 208,31.5062453 208,42.0004095 L208,53.9995905 C208,64.4929015 199.493085,73 189,73 C178.506915,73 170,64.4929015 170,53.9995905 L170,42.0004095 C170,31.5062453 178.506915,23 189,23" id="Fill-13" fill="#FFD4BF"></path>
            <polygon id="Fill-15" fill="#FFD4BF" points="184 83 194 83 194 68 184 68"></polygon>
            <path d="M189,72.6481316 C190.72716,72.6481316 192.402975,72.421956 194,72 L194,76.3518684 C192.402975,76.7738244 190.72716,77 189,77 C187.271955,77 185.59614,76.7738244 184,76.3518684 L184,72 C185.59614,72.421956 187.271955,72.6481316 189,72.6481316" id="Fill-17" fill="#F2B99E"></path>
            <path d="M187.997933,64 C190.95109,64 193.633824,62.8549455 195,61.0108951 L193.721484,60 C192.669561,61.4193548 190.423475,62.3362529 187.997933,62.3362529 C185.574872,62.3362529 183.328785,61.4202094 182.277689,60.0025636 L181,61.0143132 C182.365349,62.8566546 185.048083,64 187.997933,64" id="Fill-18" fill="#F29985"></path>
            <path d="M174,55.6247953 C181.500465,56.7719229 185.681266,51.4514981 188.958134,55.6247953 C188.958134,55.6247953 189.938924,60 182.406145,60 C175.959833,60 174,55.6247953 174,55.6247953" id="Fill-19" fill="#000000"></path>
            <path d="M204,55.6247953 C196.499535,56.7719229 192.318734,51.4514981 189.041866,55.6247953 C189.041866,55.6247953 188.061076,60 195.593855,60 C202.040167,60 204,55.6247953 204,55.6247953" id="Fill-20" fill="#000000"></path>
            <polygon id="Fill-21" fill="#4C4C4C" points="170 38 207 38 207 8 170 8"></polygon>
            <path d="M181,9.5 C181,14.7465909 176.746591,19 171.5,19 C166.253409,19 162,14.7465909 162,9.5 C162,4.25340909 166.253409,0 171.5,0 C176.746591,0 181,4.25340909 181,9.5" id="Fill-22" fill="#4C4C4C"></path>
            <path d="M217,9.5 C217,14.7465909 212.746591,19 207.5,19 C202.253409,19 198,14.7465909 198,9.5 C198,4.25340909 202.253409,0 207.5,0 C212.746591,0 217,4.25340909 217,9.5" id="Fill-23" fill="#4C4C4C"></path>
            <path d="M198,9.5 C198,14.7465909 193.746591,19 188.5,19 C183.253409,19 179,14.7465909 179,9.5 C179,4.25340909 183.253409,0 188.5,0 C193.746591,0 198,4.25340909 198,9.5" id="Fill-24" fill="#4C4C4C"></path>
            <polygon id="Fill-25" fill="#4C4C4C" points="166 170 210 170 210 128 166 128"></polygon>
            <path d="M222.67505,97.0608472 C231.116897,104.316871 231.220669,112.828713 230.918001,115.937834 C229.831855,127.064413 219.900016,136.117118 206.765948,137.950139 C206.523814,137.983943 206.283409,138 206.045598,138 C203.571502,138 201.411317,136.223601 201.051574,133.761826 C200.656376,131.062579 202.575292,128.562774 205.33649,128.177409 C213.835411,126.990889 220.219979,121.572112 220.860771,115.000618 C221.199759,111.52895 219.784137,108.238133 216.91052,105.400289 L222.605869,97 L222.67505,97.0608472 Z" id="Fill-26" fill="#FFD4BF"></path>
            <path d="M155.634866,95.0600013 C147.148916,102.200162 146.824986,110.828355 147.04179,113.987855 C147.818882,125.298109 157.342938,134.731178 170.20322,136.928941 C170.441279,136.968371 170.676788,136.990657 170.911446,136.998372 C173.341347,137.060944 175.511934,135.314048 175.929387,132.829135 C176.387651,130.102502 174.56735,127.518159 171.863681,127.056148 C163.541822,125.634116 157.408405,119.975989 156.949291,113.295268 C156.707831,109.768046 158.184647,106.467115 161.083014,103.663337 L155.704583,95 L155.634866,95.0600013 Z" id="Fill-27" fill="#FFD4BF"></path>
            <path d="M314.782622,192 L304.215973,192 C302.439823,192 301,193.42978 301,195.193739 L301,202 L321,202 L321,198.176819 C321,194.765651 318.216569,192 314.782622,192" id="Fill-28" fill="#4C4C4C"></path>
            <path d="M337.783208,192 L327.21611,192 C325.439884,192 324,193.42978 324,195.193739 L324,202 L344,202 L344,198.176819 C344,194.765651 341.216451,192 337.783208,192" id="Fill-29" fill="#4C4C4C"></path>
            <path d="M320.5,19 C309.730504,19 301,27.6767774 301,38.38 L301,50.62 C301,61.3232226 309.730504,70 320.5,70 C331.269496,70 340,61.3232226 340,50.62 L340,38.38 C340,27.6767774 331.269496,19 320.5,19" id="Fill-30" fill="#FFD4BF"></path>
            <polygon id="Fill-31" fill="#FFD4BF" points="315 79 325 79 325 64 315 64"></polygon>
            <path d="M320,70.6476323 C318.272148,70.6476323 316.596863,70.4213092 315,70 L315,74.3523677 C316.596863,74.7736769 318.272148,75 320,75 C321.727852,75 323.402275,74.7736769 325,74.3523677 L325,70 C323.402275,70.4213092 321.727852,70.6476323 320,70.6476323" id="Fill-32" fill="#F2B99E"></path>
            <path d="M320.501725,61 C317.337838,61 314.46291,59.8546475 313,58.0106051 L314.369753,57 C315.496262,58.419006 317.902818,59.3364525 320.501725,59.3364525 C323.098045,59.3364525 325.503738,58.4198378 326.630247,57.0024953 L328,58.014764 C326.536228,59.8563111 323.663025,61 320.501725,61" id="Fill-33" fill="#F29985"></path>
            <path d="M275.745753,130 L272.586339,136.251539 C271.285157,138.827617 272.222242,142.021108 274.678632,143.386104 C275.429476,143.802111 276.235688,144 277.030156,144 C278.834696,144 280.579673,142.980651 281.482362,141.192612 L285,134.228672 L275.745753,130 Z" id="Fill-34" fill="#FFD4BF"></path>
            <path d="M286.366767,134 L308.405967,92.4668309 C309.723819,89.9851134 308.77534,86.9075464 306.289083,85.5929481 C303.801129,84.2775023 300.717933,85.2242503 299.402629,87.7059678 L277,129.92483 L286.366767,134 Z" id="Fill-35" fill="#4C4C4C"></path>
            <polygon id="Fill-36" fill="#FFFFFF" points="286.522112 134 290 127.660387 280.285392 124 277 129.991997"></polygon>
            <path d="M362.254886,130 L365.414232,136.251539 C366.714547,138.827617 365.777481,142.021108 363.321145,143.386104 C362.571157,143.802111 361.764961,144 360.970511,144 C359.166009,144 357.421071,142.980651 356.5184,141.192612 L353,134.228672 L362.254886,130 Z" id="Fill-37" fill="#FFD4BF"></path>
            <path d="M353.63255,134 L331.594587,92.4668309 C330.27591,89.9851134 331.224372,86.9075464 333.710585,85.5929481 C336.198495,84.2775023 339.281636,85.2242503 340.597767,87.7059678 L363,129.92483 L353.63255,134 Z" id="Fill-38" fill="#4C4C4C"></path>
            <polygon id="Fill-39" fill="#FFFFFF" points="353.477025 134 350 127.660387 359.714608 124 363 129.991997"></polygon>
            <path d="M326.702674,80 L312.298172,80 C303.84893,80 297,86.9015054 297,95.4137031 L297,128.770979 C297,134.267285 299.556607,139.152228 303.527344,142.314778 L303.527344,193 L314.577199,193 L314.577199,146.037533 L324.862865,146.037533 C325.15737,146.037533 325.444258,146.008542 325.734532,145.993194 L325.734532,193 L336.785233,193 L336.785233,141.160264 C339.996859,138.021588 342,133.634605 342,128.770979 L342,95.4137031 C342,86.9015054 335.150224,80 326.702674,80" id="Fill-40" fill="#4C4C4C"></path>
            <path d="M319.5,111 L330,80.3736897 C328.933349,80.1351098 327.828665,80 326.693552,80 L312.306448,80 C311.17049,80 310.066651,80.1351098 309,80.3736897 L319.5,111 Z" id="Fill-41" fill="#FFFFFF"></path>
            <path d="M318,86 C318,86.5523091 318.448633,87 319.000943,87 C319.551367,87 320,86.5523091 320,86 C320,85.4476909 319.551367,85 319.000943,85 C318.448633,85 318,85.4476909 318,86" id="Fill-42" fill="#4C4C4C"></path>
            <path d="M318,91 C318,91.5523091 318.448633,92 319.000943,92 C319.551367,92 320,91.5523091 320,91 C320,90.4476909 319.551367,90 319.000943,90 C318.448633,90 318,90.4476909 318,91" id="Fill-43" fill="#4C4C4C"></path>
            <path d="M318,97 C318,97.5523091 318.448633,98 319.000943,98 C319.551367,98 320,97.5523091 320,97 C320,96.4476909 319.551367,96 319.000943,96 C318.448633,96 318,96.4476909 318,97" id="Fill-44" fill="#4C4C4C"></path>
            <polygon id="Fill-45" fill="#333333" points="294 32 346 32 346 28 294 28"></polygon>
            <path d="M337.513159,12.4334975 C336.932877,9.84685853 334.561104,8 331.816783,8 L309.182359,8 C306.438896,8 304.066265,9.84685853 303.486841,12.4334975 L300,28 L341,28 L337.513159,12.4334975 Z" id="Fill-46" fill="#4C4C4C"></path>
            <path d="M77,95.1275333 C73.3886553,94.0543179 69.5620189,91.7868914 65.7987547,88.3700055 C63.7144185,86.4771684 60.4173303,86.5550698 58.4354313,88.5456979 C56.451796,90.5346686 56.5342666,93.6822147 58.6194709,95.5750517 C63.3289769,99.8521674 67.7754451,102.477609 71.8347354,104 L77,95.1275333 Z" id="Fill-47" fill="#F7F7F7"></path>
            <path d="M36.2978843,80 L50.7021157,80 C59.1503526,80 66,86.9330571 66,95.4860834 L66,129 L21,129 L21,95.4860834 C21,86.9330571 27.8496474,80 36.2978843,80" id="Fill-48" fill="#FFFFFF"></path>
            <path d="M66,128 C66,133.475859 63.4434415,138.344232 59.4727786,141.494657 L59.4727786,192 L48.4222849,192 L48.4222849,145.204986 L38.1368124,145.204986 C37.8431594,145.204986 37.5562764,145.175249 37.2651622,145.160806 L37.2651622,192 L26.2146685,192 L26.2146685,140.344259 C23.003103,137.217624 21,132.846284 21,128 L66,128 Z" id="Fill-49" fill="#4C4C4C"></path>
            <path d="M72.088252,104.187799 C82.6487906,108.311491 90.4913376,104.349579 93.1974491,102.597244 C102.883105,96.3210246 106.564231,83.090811 102.149935,70.4242736 C102.068471,70.1901181 101.972582,69.9670317 101.862267,69.7524601 C100.714143,67.5318141 98.0852516,66.4385206 95.6634134,67.2874409 C93.0090651,68.2189542 91.6106105,71.1327006 92.5381049,73.7969648 C95.3944145,81.9932601 93.3934704,90.3070589 87.6723654,94.0126768 C84.6531291,95.9710685 80.9804886,96.2673817 77.0498807,95.0387037 L72,104.154592 L72.088252,104.187799 Z" id="Fill-50" fill="#FFD4BF"></path>
            <path d="M14.6407406,102 C17.1959978,99.4425774 20.9117503,97.250147 25.627096,95.6398874 C28.239044,94.7480513 29.6263027,91.9280325 28.7250848,89.340882 C27.8247005,86.7537315 24.9768185,85.3796433 22.3657041,86.2723052 C16.4640188,88.2888457 12.153846,90.8388363 9,93.5688457 L14.6407406,102 Z" id="Fill-51" fill="#F9F9F9"></path>
            <path d="M8.32451514,93.0623633 C-0.116556891,100.494552 -0.220944338,109.214459 0.0821159925,112.398359 C1.16808218,123.797359 11.1000427,133.070109 24.2334988,134.94775 C24.4767889,134.982302 24.7167117,135 24.9549508,135 C27.427418,135 29.5884065,133.179666 29.9487115,130.657323 C30.34269,127.893112 28.4241497,125.332002 25.6629334,124.936754 C17.1637748,123.721512 10.7801457,118.170335 10.138668,111.438469 C9.79940875,107.882918 11.2162158,104.511086 14.0893961,101.604451 L8.39354555,93 L8.32451514,93.0623633 Z" id="Fill-52" fill="#FFD4BF"></path>
            <path d="M48.2173783,192 L58.7840266,192 C60.5601771,192 62,193.42978 62,195.193739 L62,202 L42,202 L42,198.176819 C42,194.765651 44.784282,192 48.2173783,192" id="Fill-53" fill="#4C4C4C"></path>
            <path d="M26.2173783,192 L36.7840266,192 C38.5601771,192 40,193.42978 40,195.193739 L40,202 L20,202 L20,198.176819 C20,194.765651 22.784282,192 26.2173783,192" id="Fill-54" fill="#4C4C4C"></path>
            <path d="M36.2124134,78.7173184 L38.5314245,78.7173184 L38.5314245,60 L48.4694318,60 L48.4694318,78.7173184 L50.7884429,78.7173184 C52.250242,78.7173184 53.6598034,78.9293296 55,79.2997207 C54.6882865,85.2586592 49.6674734,90 43.5008564,90 C37.333383,90 32.3117135,85.2586592 32,79.2997207 C33.3410529,78.9293296 34.7506143,78.7173184 36.2124134,78.7173184" id="Fill-55" fill="#FFFFFF"></path>
            <path d="M44,14 C33.3304444,14 25,22.6602338 25,33.343049 L25,45.5597115 C25,54.5471773 30.8992889,61.8333748 39.1951111,64.3700572 L39.0929333,64.3700572 C40.6576889,64.3700572 42.2477778,65 43.9417333,65 C45.6348444,65 47.2502667,64.3700572 48.8158667,64.3700572 L48.6900444,64.3700572 C56.9841778,61.8333748 63,54.5471773 63,45.5597115 L63,33.343049 C63,22.6602338 54.6695556,14 44,14" id="Fill-56" fill="#FFD4BF"></path>
            <path d="M39,70 L39,80 L48,80 L48,70 C46.3636364,70.3995047 45.1412727,70.6149402 43.5,70.6149402 C41.8587273,70.6149402 39.8181818,70.3995047 39,70" id="Fill-57" fill="#FFD4BF"></path>
            <path d="M43.9526674,65.6616341 C42.1779174,65.6616341 40.6402725,65 39,65 L39.2008316,65 L39.2008316,69.3383659 C40.0855525,69.768206 42.2929311,70 44.0667964,70 C45.8415465,70 47.1633195,69.768206 48.9327612,69.3383659 L48.9327612,65 L49,65 C47.3606122,65 45.7265328,65.6616341 43.9526674,65.6616341" id="Fill-58" fill="#F2B99E"></path>
            <path d="M44.4982749,57 C47.6621622,57 50.5370903,55.8546475 52,54.0106051 L50.6302473,53 C49.5037378,54.419006 47.0971823,55.3364525 44.4982749,55.3364525 C41.9019551,55.3364525 39.4962622,54.4198378 38.3697527,53.0024953 L37,54.014764 C38.4637723,55.8563111 41.3369753,57 44.4982749,57" id="Fill-59" fill="#F29985"></path>
            <path d="M62.8593506,41 C69.1077671,37.0322855 72.8544196,30.080496 71.8329945,22.6568656 C70.6403329,13.9843445 63.1230547,4.26102103 53.6365578,4.35113839 C43.2305215,4.44890723 32.6224262,6.48079874 22.3516666,3.95241156 C20.1684024,3.41425787 17.6563644,2.22572886 17.4577301,0 C17.5073887,0.558557625 15.6357748,2.70182059 15.3249807,3.36834902 C14.7444893,4.61979015 14.3300972,5.95029652 14.1340315,7.31650977 C12.8874305,16.0179364 20.551972,21.3892713 28.1711358,23.2749347 C33.2371649,24.5289263 38.5591924,24.3997014 43.7348127,23.7221208 C46.520829,23.3565504 49.3325308,22.8354 52.1211157,23.1805665 C60.4235128,24.2084145 62.498898,34.0711649 62.8593506,41" id="Fill-60" fill="#D1956D"></path>
            <polygon id="Fill-61" fill="#4C4C4C" points="43 81.3636364 34 83 34 74 43 75.6363636"></polygon>
            <polygon id="Fill-62" fill="#4C4C4C" points="46 75.6363636 55 74 55 83 46 81.3636364"></polygon>
            <polygon id="Fill-63" fill="#3F3F3F" points="43 82 46 82 46 75 43 75"></polygon>
            <path d="M100,43 C100,40.7904678 98.2093355,39 95.9995607,39 C93.7906645,39 92,40.7904678 92,43 C92,45.2095322 93.7906645,47 95.9995607,47 C98.2093355,47 100,45.2095322 100,43" id="Fill-64" fill="#CECECE"></path>
            <path d="M72,69 C72,55.7451393 82.9679459,45 96.4995709,45 C110.031196,45 121,55.7451393 121,69" id="Fill-65" fill="#C1C1C1"></path>
            <path d="M123,68.9305714 C123,67.3122857 121.704538,66 120.107,66 L70.893,66 C69.2954615,66 68,67.3122857 68,68.9305714 L68,69.0694286 C68,70.6877143 69.2954615,72 70.893,72 L120.107,72 C121.704538,72 123,70.6877143 123,69.0694286 L123,68.9305714 Z" id="Fill-66" fill="#CECECE"></path>
        </g>
    </g>
</svg>