<?xml version="1.0" encoding="UTF-8"?>
<svg width="187px" height="64px" viewBox="0 0 187 64" version="1.1" xmlns="http://www.w3.org/2000/svg" xmlns:xlink="http://www.w3.org/1999/xlink">
    <!-- Generator: Sketch 48.2 (47327) - http://www.bohemiancoding.com/sketch -->
    <title>logo</title>
    <desc>Created with Sketch.</desc>
    <defs></defs>
    <g id="Desktop-HD" stroke="none" stroke-width="1" fill="none" fill-rule="evenodd" transform="translate(-136.000000, -40.000000)">
        <g id="logo" transform="translate(136.000000, 40.000000)" fill="#FFFFFF">
            <path d="M31.7644082,0.249733943 C14.2204654,0.249733943 5.7460837e-05,14.2993262 5.7460837e-05,31.6325309 C5.7460837e-05,46.7017234 10.7498309,59.2849306 25.0845859,62.3130753 C26.4722651,56.2908483 26.2579362,50.8119161 26.0436072,48.3077642 C19.1666943,45.9057994 14.2382783,39.4294074 14.2382783,31.8130615 C14.2382783,22.1512702 22.1655753,14.3191959 31.9448352,14.3191959 C41.7240951,14.3191959 49.6513921,22.1512702 49.6513921,31.8130615 C49.6513921,39.5997193 44.5006027,46.1953295 37.3823542,48.4627479 C36.7250022,53.6288741 37.3932718,58.8341719 38.0977416,62.3806323 C52.6020061,59.4745445 63.5235874,46.8181032 63.5235874,31.6325309 C63.5235874,14.2993262 49.3031795,0.249733943 31.7644082,0.249733943" id="Fill-12"></path>
            <path d="M38.4801435,38.3163059 C37.8486489,42.9101842 34.8606854,42.1602444 33.9637217,46.9386272 C33.8206442,47.6845931 33.7068718,48.4492933 33.6080391,49.2287539 C33.0069988,53.9980534 33.1650161,59.2351428 33.4948413,62.9666754 C32.923106,63.0007378 32.3461991,63.0154982 31.7641209,63.0154982 C31.2320335,63.0154982 30.7039684,63.0007378 30.1764779,62.9717848 C30.5017063,59.2300334 30.6597236,53.9787514 30.0581086,49.2043425 C29.9644475,48.4345329 29.8460781,47.6743744 29.7081721,46.9386272 C28.8106338,42.1602444 25.8226703,42.9101842 25.1917503,38.3163059 C24.5556589,33.7173183 25.5859317,27.2676085 26.2070833,21.0512259 L27.2379307,21.0512259 C27.3953734,26.3229454 27.5533907,30.8577823 27.7062366,36.1289341 C27.7211764,38.1312337 30.3885084,38.3021133 30.3787401,36.1681058 C30.6597236,30.9843808 31.0941275,26.234951 31.3699395,21.0512259 L32.3019543,21.0512259 C32.5783409,26.234951 33.0115956,30.9843808 33.2879823,36.1681058 C33.2833854,38.3021133 35.9507175,38.1312337 35.9604858,36.1289341 C36.1185031,30.8577823 36.2759458,26.3229454 36.4287916,21.0512259 L37.4642359,21.0512259 C38.0807907,27.2676085 39.1110635,33.7173183 38.4801435,38.3163059" id="Fill-15"></path>
            <path d="M94.0292969,24.8730469 L88.1757812,45 L85.1875,45 L78.2792969,19.6347656 L81.5839844,19.6347656 L86.6640625,40.3417969 L86.8046875,40.3417969 L92.5175781,19.6347656 L95.7167969,19.6347656 L101.429688,40.3417969 L101.570312,40.3417969 L106.650391,19.6347656 L109.955078,19.6347656 L103.046875,45 L100.058594,45 L94.2050781,24.8730469 L94.0292969,24.8730469 Z M116.300781,42.7148438 C119.183594,42.7148438 121.398438,40.6933594 121.398438,38.0566406 L121.398438,36.5625 L116.511719,36.8613281 C114.050781,37.0195312 112.644531,38.109375 112.644531,39.8320312 C112.644531,41.5722656 114.103516,42.7148438 116.300781,42.7148438 Z M115.615234,45.3164062 C111.976562,45.3164062 109.533203,43.1191406 109.533203,39.8320312 C109.533203,36.703125 111.941406,34.734375 116.160156,34.4882812 L121.398438,34.1894531 L121.398438,32.6601562 C121.398438,30.4277344 119.921875,29.0917969 117.390625,29.0917969 C115.035156,29.0917969 113.558594,30.1992188 113.171875,31.9921875 L110.21875,31.9921875 C110.429688,28.828125 113.136719,26.4023438 117.460938,26.4023438 C121.75,26.4023438 124.457031,28.7226562 124.457031,32.3613281 L124.457031,45 L121.556641,45 L121.556641,41.8535156 L121.486328,41.8535156 C120.396484,43.9453125 118.076172,45.3164062 115.615234,45.3164062 Z M128.5,45 L128.5,26.71875 L131.558594,26.71875 L131.558594,45 L128.5,45 Z M130.029297,23.6425781 C128.992188,23.6425781 128.130859,22.78125 128.130859,21.7441406 C128.130859,20.6894531 128.992188,19.8457031 130.029297,19.8457031 C131.083984,19.8457031 131.945312,20.6894531 131.945312,21.7441406 C131.945312,22.78125 131.083984,23.6425781 130.029297,23.6425781 Z M161.160156,45 L158.207031,45 L158.207031,25.453125 L158.083984,25.453125 L149.998047,44.8242188 L147.326172,44.8242188 L139.240234,25.453125 L139.117188,25.453125 L139.117188,45 L136.164062,45 L136.164062,19.6347656 L139.837891,19.6347656 L148.591797,40.7988281 L148.732422,40.7988281 L157.486328,19.6347656 L161.160156,19.6347656 L161.160156,45 Z M171.109375,42.7148438 C173.992188,42.7148438 176.207031,40.6933594 176.207031,38.0566406 L176.207031,36.5625 L171.320312,36.8613281 C168.859375,37.0195312 167.453125,38.109375 167.453125,39.8320312 C167.453125,41.5722656 168.912109,42.7148438 171.109375,42.7148438 Z M170.423828,45.3164062 C166.785156,45.3164062 164.341797,43.1191406 164.341797,39.8320312 C164.341797,36.703125 166.75,34.734375 170.96875,34.4882812 L176.207031,34.1894531 L176.207031,32.6601562 C176.207031,30.4277344 174.730469,29.0917969 172.199219,29.0917969 C169.84375,29.0917969 168.367188,30.1992188 167.980469,31.9921875 L165.027344,31.9921875 C165.238281,28.828125 167.945312,26.4023438 172.269531,26.4023438 C176.558594,26.4023438 179.265625,28.7226562 179.265625,32.3613281 L179.265625,45 L176.365234,45 L176.365234,41.8535156 L176.294922,41.8535156 C175.205078,43.9453125 172.884766,45.3164062 170.423828,45.3164062 Z M183.308594,45 L183.308594,26.71875 L186.367188,26.71875 L186.367188,45 L183.308594,45 Z M184.837891,23.6425781 C183.800781,23.6425781 182.939453,22.78125 182.939453,21.7441406 C182.939453,20.6894531 183.800781,19.8457031 184.837891,19.8457031 C185.892578,19.8457031 186.753906,20.6894531 186.753906,21.7441406 C186.753906,22.78125 185.892578,23.6425781 184.837891,23.6425781 Z" id="WaiMai"></path>
        </g>
    </g>
</svg>