<?xml version="1.0" encoding="UTF-8"?>
<svg width="55px" height="66px" viewBox="0 0 55 66" version="1.1" xmlns="http://www.w3.org/2000/svg" xmlns:xlink="http://www.w3.org/1999/xlink">
    <!-- Generator: Sketch 48.2 (47327) - http://www.bohemiancoding.com/sketch -->
    <title>money</title>
    <desc>Created with Sketch.</desc>
    <defs>
        <linearGradient x1="50%" y1="0%" x2="50%" y2="100%" id="linearGradient-1">
            <stop stop-color="#FFCA40" offset="0%"></stop>
            <stop stop-color="#FFA21E" offset="100%"></stop>
        </linearGradient>
    </defs>
    <g id="Desktop-HD" stroke="none" stroke-width="1" fill="none" fill-rule="evenodd" transform="translate(-345.000000, -1000.000000)">
        <g id="money" transform="translate(337.000000, 997.000000)">
            <rect id="Rectangle-3" x="0" y="0" width="72" height="72"></rect>
            <path d="M27.2006214,18.369863 L43.798268,18.369863 L54.9452817,28.084959 C65.6849061,37.4445311 65.6849061,52.6203987 54.9452817,61.9799708 C44.2056574,71.3400097 26.7930035,71.3400097 16.0539148,61.9799708 C5.31536173,52.6203987 5.31536173,37.4445311 16.0539148,28.084959 L27.2006214,18.369863 Z M45.1463558,14.7534247 L26.7506743,14.7534247 L20.9515019,6.0038569 C20.0179915,4.58955123 21.1848795,3 23.0519005,3 L48.8496452,3 C50.7173711,3 51.8835541,4.61176545 50.9500437,6.02607113 L45.1463558,14.7534247 Z M34.8878154,59.9589041 L37.665729,59.9589041 L37.665729,55.5419071 L38.3751081,55.3639071 C42.0608993,54.471743 44.0655738,51.851518 44.0655738,47.9852931 C44.0655738,43.9535119 40.6235152,42.3039009 37.5853717,40.84798 C35.3369646,39.7702413 33.3945537,38.8391228 33.3945537,36.9671471 C33.3945537,33.8064298 36.1096716,33.8064298 37.001052,33.8064298 C38.4591906,33.8064298 39.7544859,34.3025574 41.1977238,35.4398097 L43.5190379,32.7281501 C41.958191,31.2511288 40.3372092,30.412527 38.4464185,30.1063021 L37.665729,29.976454 L37.665729,25.6027397 L34.8878154,25.6027397 L34.8878154,30.0148674 L34.1358629,30.1809647 C30.5676807,30.9660042 28.524158,33.5624237 28.524158,37.3036699 C28.524158,41.0930681 31.8895844,42.8081441 34.8601427,44.3214146 C37.1867784,45.5073599 39.1973067,46.5315362 39.1973067,48.4895362 C39.1973067,50.6985758 37.9004148,51.819056 35.3433506,51.819056 C33.5850696,51.819056 31.8757481,51.2130986 29.9019393,49.8729587 L27.8360656,53.1635241 C29.4788662,54.4154755 31.7400454,55.3087217 34.0507161,55.5970925 L34.8878154,55.702053 L34.8878154,59.9589041 Z" id="Combined-Shape" fill="url(#linearGradient-1)"></path>
        </g>
    </g>
</svg>