<?xml version="1.0" encoding="UTF-8"?>
<svg width="70px" height="64px" viewBox="0 0 70 64" version="1.1" xmlns="http://www.w3.org/2000/svg" xmlns:xlink="http://www.w3.org/1999/xlink">
    <!-- Generator: Sketch 48.2 (47327) - http://www.bohemiancoding.com/sketch -->
    <title>p2p</title>
    <desc>Created with Sketch.</desc>
    <defs>
        <linearGradient x1="50%" y1="1.38911033%" x2="50%" y2="100%" id="linearGradient-1">
            <stop stop-color="#C98DFC" offset="0%"></stop>
            <stop stop-color="#7F8BFF" offset="100%"></stop>
        </linearGradient>
    </defs>
    <g id="Desktop-HD" stroke="none" stroke-width="1" fill="none" fill-rule="evenodd" transform="translate(-685.000000, -1001.000000)">
        <g id="p2p" transform="translate(684.000000, 997.000000)" fill="url(#linearGradient-1)">
            <path d="M61.4882349,48.3818944 C66.5080464,48.6360169 70.5,52.7866057 70.5,57.8695652 C70.5,63.1162703 66.2467051,67.3695652 61,67.3695652 C55.7532949,67.3695652 51.5,63.1162703 51.5,57.8695652 C51.5,53.1189083 54.9870607,49.1826981 59.5412496,48.4808671 L58.3194442,29.3451345 C58.0484613,29.3613411 57.7752295,29.3695652 57.5,29.3695652 C53.1174183,29.3695652 49.2413554,27.2843104 46.8864067,24.089373 L31.6891109,32.5686839 C32.2149437,34.0759793 32.5,35.6905569 32.5,37.3695652 C32.5,45.6538365 25.5604136,52.3695652 17,52.3695652 C8.43958638,52.3695652 1.5,45.6538365 1.5,37.3695652 C1.5,29.085294 8.43958638,22.3695652 17,22.3695652 C23.1020487,22.3695652 28.380531,25.7819263 30.9090178,30.7423621 L45.8433785,22.4097555 C44.9833821,20.7400239 44.5,18.8590734 44.5,16.8695652 C44.5,9.96600584 50.3202983,4.36956522 57.5,4.36956522 C64.6797017,4.36956522 70.5,9.96600584 70.5,16.8695652 C70.5,22.8637349 66.1120953,27.8724719 60.2563333,29.0880384 L61.4882349,48.3818944 Z" id="Combined-Shape" transform="translate(36.000000, 35.869565) scale(1, -1) translate(-36.000000, -35.869565) "></path>
        </g>
    </g>
</svg>