<?xml version="1.0" encoding="UTF-8"?>
<svg width="616px" height="386px" viewBox="0 0 616 386" version="1.1" xmlns="http://www.w3.org/2000/svg" xmlns:xlink="http://www.w3.org/1999/xlink">
    <!-- Generator: Sketch 48.2 (47327) - http://www.bohemiancoding.com/sketch -->
    <title>restaurant</title>
    <desc>Created with Sketch.</desc>
    <defs>
        <path d="M290.553883,46.0778794 L10.4955856,154.671628 C2.771649,157.666616 -1.06192132,166.356021 1.93306667,174.079958 C3.06091903,176.988638 5.0676145,179.473288 7.67379577,181.188014 L270.797468,354.309166 C287.133649,365.05749 308.236488,365.295918 324.811345,354.919435 L601.975661,181.404168 C608.997432,177.008275 611.126128,167.75243 606.730235,160.730658 C604.96855,157.916633 602.323063,155.766574 599.208317,154.617391 L304.707255,45.9614662 C300.132988,44.2737942 295.09977,44.3151931 290.553883,46.0778794 Z" id="path-1"></path>
        <filter x="-2.6%" y="-3.8%" width="105.3%" height="115.1%" filterUnits="objectBoundingBox" id="filter-2">
            <feOffset dx="0" dy="20" in="SourceAlpha" result="shadowOffsetOuter1"></feOffset>
            <feGaussianBlur stdDeviation="2" in="shadowOffsetOuter1" result="shadowBlurOuter1"></feGaussianBlur>
            <feColorMatrix values="0 0 0 0 0.638552296   0 0 0 0 0.323722589   0 0 0 0 0  0 0 0 0.5 0" type="matrix" in="shadowBlurOuter1"></feColorMatrix>
        </filter>
    </defs>
    <g id="Desktop-HD" stroke="none" stroke-width="1" fill="none" fill-rule="evenodd" transform="translate(-692.000000, -185.000000)">
        <g id="restaurant" transform="translate(695.000000, 184.000000)">
            <g id="Fill-1">
                <use fill="black" fill-opacity="1" filter="url(#filter-2)" xlink:href="#path-1"></use>
                <use fill="#FFFFFF" fill-rule="evenodd" xlink:href="#path-1"></use>
            </g>
            <g id="Group-266" transform="translate(106.000000, 0.000000)">
                <g id="Group" transform="translate(283.500000, 82.000000) rotate(1.000000) translate(-283.500000, -82.000000) translate(213.000000, 2.000000)">
                    <path d="M2,66.8407685 C2,66.0410578 3.37430725,65.3929776 5.06688696,65.3929776 C6.7605913,65.3929776 8.13264928,66.0410578 8.13264928,66.8407685 L8.13264928,95.5798101 C8.13264928,96.3761513 6.7605913,97.0253546 5.06688696,97.0253546 C3.37430725,97.0253546 2,96.3761513 2,95.5798101 L2,66.8407685 Z" id="Fill-2" fill="#1E252B"></path>
                    <path d="M31,83.8351525 C31,83.0388114 32.3754319,82.3929776 34.0680116,82.3929776 C35.7594667,82.3929776 37.1326493,83.0388114 37.1326493,83.8351525 L37.1326493,112.575317 C37.1326493,113.373905 35.7594667,114.023108 34.0680116,114.023108 C32.3754319,114.023108 31,113.373905 31,112.575317 L31,83.8351525 Z" id="Fill-4" fill="#1E252B"></path>
                    <path d="M55,69.8396453 C55,69.0399346 56.372058,68.3929776 58.0657623,68.3929776 C59.7560928,68.3929776 61.1315246,69.0399346 61.1315246,69.8396453 L61.1315246,98.5764406 C61.1315246,99.3761513 59.7560928,100.024231 58.0657623,100.024231 C56.372058,100.024231 55,99.3761513 55,98.5764406 L55,69.8396453 Z" id="Fill-6" fill="#1E252B"></path>
                    <polygon id="Fill-8" fill="#2C343D" points="0 67.5972878 4.86855652 70.4018912 4.86855652 20.1638853 0 17.3929776"></polygon>
                    <polygon id="Fill-10" fill="#2C343D" points="29.1710841 49.9580399 24 52.9760492 24 15.506458 29.1710841 12.3929776"></polygon>
                    <polygon id="Fill-12" fill="#333E48" points="28.9244754 23.3929776 11 33.7251949 11 39.1591842 28.9244754 28.8258437"></polygon>
                    <polygon id="Fill-14" fill="#47515A" points="10.8404406 33.5174432 6 30.7285645 23.9233507 20.3929776 28.7649159 23.1852259"></polygon>
                    <polygon id="Fill-16" fill="#333E48" points="28.9244754 39.3929776 11 49.7274413 11 55.1558146 28.9244754 44.8235973"></polygon>
                    <polygon id="Fill-18" fill="#47515A" points="10.8404406 49.5208128 6 46.7263181 23.9233507 36.3929776 28.7649159 39.1863491"></polygon>
                    <path d="M28.4745623,50.4343871 L10.550087,60.7632348 L10.550087,23.3307088 L28.4745623,12.9962451 L28.4745623,50.4343871 Z M5,20.1284965 L5,70.3665023 L34.0268986,53.6354762 L34.0268986,3.39297761 L5,20.1284965 Z" id="Fill-20" fill="#515962"></path>
                    <polygon id="Fill-22" fill="#737A81" points="0 17.1464675 4.86855652 19.9173752 33.8965797 3.18185635 29.0538899 0.392977605"></polygon>
                    <polygon id="Fill-24" fill="#6EDBD5" points="5 65.1689313 34.0257739 81.9010806 63.0448 65.1689313 34.0910029 48.3929776"></polygon>
                    <polygon id="Fill-26" fill="#3F7D79" points="34.0257739 81.1251269 34.0257739 86.7028844 5 69.9696119 5 64.3929776"></polygon>
                    <polygon id="Fill-28" fill="#A0E6E1" points="34 81.1251269 34 86.7028844 63.0280232 69.9696119 63.0280232 64.3929776"></polygon>
                    <path d="M45,123.765553 C45,129.827405 55.4186435,134.741358 68.2721275,134.741358 C81.124487,134.741358 91.547629,129.827405 91.547629,123.765553 L91.547629,119.392978 L45,119.392978 L45,123.765553 Z" id="Fill-30" fill="#47515A"></path>
                    <path d="M91.547629,119.372152 C91.547629,113.308053 81.124487,108.392978 68.2732522,108.392978 C55.4186435,108.392978 45,113.308053 45,119.372152 C45,125.432881 55.4186435,130.347957 68.2732522,130.347957 C81.124487,130.347957 91.547629,125.432881 91.547629,119.372152" id="Fill-32" fill="#333E48"></path>
                    <path d="M63,70.6831604 C63,69.4184493 65.1784232,68.3929776 67.8629333,68.3929776 C70.5463188,68.3929776 72.7258667,69.4184493 72.7258667,70.6831604 L72.7258667,119.341962 C72.7258667,120.606673 70.5463188,121.635515 67.8629333,121.635515 C65.1784232,121.635515 63,120.606673 63,119.341962 L63,70.6831604 Z" id="Fill-34" fill="#47515A"></path>
                    <path d="M25,74.5731644 C25,85.9106361 44.4910957,95.1039396 68.5358493,95.1039396 C92.577229,95.1039396 112.073948,85.9106361 112.073948,74.5731644 L112.073948,66.3929776 L25,66.3929776 L25,74.5731644 Z" id="Fill-36" fill="#B36E1C"></path>
                    <path d="M112.073948,65.9237527 C112.073948,54.5817883 92.577229,45.3929776 68.5358493,45.3929776 C44.4910957,45.3929776 25,54.5817883 25,65.9237527 C25,77.2623475 44.4910957,86.4567742 68.5358493,86.4567742 C92.577229,86.4567742 112.073948,77.2623475 112.073948,65.9237527" id="Fill-38" fill="#E8A155"></path>
                    <path d="M74.1056,66.2470013 C74.1056,64.6700437 71.3952232,63.3929776 68.0528,63.3929776 C64.7103768,63.3929776 62,64.6700437 62,66.2470013 C62,67.8239589 64.7103768,69.101025 68.0528,69.101025 C71.3952232,69.101025 74.1056,67.8239589 74.1056,66.2470013" id="Fill-40" fill="#B36E1C"></path>
                    <path d="M55.5198609,63.7615369 C49.4265739,63.7615369 45,61.1613539 45,57.5795036 C45,53.9931606 49.4265739,51.3929776 55.5198609,51.3929776 C61.6120232,51.3929776 66.0363478,53.9931606 66.0363478,57.5795036 C66.0363478,61.1613539 61.6120232,63.7615369 55.5198609,63.7615369" id="Fill-42" fill="#FFFFFF"></path>
                    <path d="M47,58.260118 C47,56.1260585 50.6696928,54.3929776 55.1941101,54.3929776 C59.7174029,54.3929776 63.3870957,56.1260585 63.3870957,58.260118 C63.3870957,60.3896847 59.7174029,62.1216424 55.1941101,62.1216424 C50.6696928,62.1216424 47,60.3896847 47,58.260118" id="Fill-44" fill="#E0E1E1"></path>
                    <path d="M81.516487,79.7604137 C75.4220754,79.7604137 71,77.1624771 71,73.5795036 C71,69.9942838 75.4220754,67.3929776 81.516487,67.3929776 C87.6120232,67.3929776 92.0352232,69.9942838 92.0352232,73.5795036 C92.0352232,77.1624771 87.6120232,79.7604137 81.516487,79.7604137" id="Fill-46" fill="#FFFFFF"></path>
                    <path d="M73,74.260118 C73,72.1283049 76.6674435,70.3929776 81.1907362,70.3929776 C85.7162783,70.3929776 89.385971,72.1283049 89.385971,74.260118 C89.385971,76.3908079 85.7162783,78.1227656 81.1907362,78.1227656 C76.6674435,78.1227656 73,76.3908079 73,74.260118" id="Fill-48" fill="#E0E1E1"></path>
                    <path d="M37,65.3929776 L37,66.3263478 C37,67.1912035 38.4822725,67.8931967 40.312058,67.8931967 C42.1407188,67.8931967 43.6274899,67.1912035 43.6274899,66.3263478 L43.6274899,65.3929776 L37,65.3929776 Z" id="Fill-50" fill="#7688B7"></path>
                    <path d="M37,56.3929776 L37,64.9426937 C37,65.8030566 38.4822725,66.5039266 40.312058,66.5039266 C42.1407188,66.5039266 43.6274899,65.8030566 43.6274899,64.9426937 L43.6274899,56.3929776 L37,56.3929776 Z" id="Fill-52" fill="#FFFFFF"></path>
                    <path d="M37,56.956457 C37,56.0904781 38.4822725,55.3929776 40.312058,55.3929776 C42.1407188,55.3929776 43.6274899,56.0904781 43.6274899,56.956457 C43.6274899,57.8190662 42.1407188,58.5188131 40.312058,58.5188131 C38.4822725,58.5188131 37,57.8190662 37,56.956457" id="Fill-54" fill="#C7D5EE"></path>
                    <path d="M92,68.3929776 L92,69.3285942 C92,70.1923267 93.4811478,70.8920735 95.312058,70.8920735 C97.1384696,70.8920735 98.6263652,70.1923267 98.6263652,69.3285942 L98.6263652,68.3929776 L92,68.3929776 Z" id="Fill-56" fill="#7688B7"></path>
                    <path d="M92,60.3929776 L92,68.9426937 C92,69.8030566 93.4811478,70.5050498 95.312058,70.5050498 C97.1384696,70.5050498 98.6263652,69.8030566 98.6263652,68.9426937 L98.6263652,60.3929776 L92,60.3929776 Z" id="Fill-58" fill="#FFFFFF"></path>
                    <path d="M92,59.9575801 C92,59.0927245 93.4811478,58.3929776 95.312058,58.3929776 C97.1384696,58.3929776 98.6263652,59.0927245 98.6263652,59.9575801 C98.6263652,60.8190662 97.1384696,61.5199363 95.312058,61.5199363 C93.4811478,61.5199363 92,60.8190662 92,59.9575801" id="Fill-60" fill="#C7D5EE"></path>
                    <path d="M79,111.837399 C79,111.041058 80.3743072,110.392978 82.0680116,110.392978 C83.7594667,110.392978 85.1337739,111.041058 85.1337739,111.837399 L85.1337739,140.576441 C85.1337739,141.373905 83.7594667,142.020862 82.0680116,142.020862 C80.3743072,142.020862 79,141.373905 79,140.576441 L79,111.837399 Z" id="Fill-62" fill="#1E252B"></path>
                    <path d="M108,128.837399 C108,128.041058 109.373183,127.392978 111.065762,127.392978 C112.758342,127.392978 114.132649,128.041058 114.132649,128.837399 L114.132649,157.577564 C114.132649,158.378398 112.758342,159.024231 111.065762,159.024231 C109.373183,159.024231 108,158.378398 108,157.577564 L108,128.837399 Z" id="Fill-64" fill="#1E252B"></path>
                    <path d="M133,114.838522 C133,114.041058 134.373183,113.392978 136.068012,113.392978 C137.759467,113.392978 139.131525,114.041058 139.131525,114.838522 L139.131525,143.578687 C139.131525,144.377274 137.759467,145.026478 136.068012,145.026478 C134.373183,145.026478 133,144.377274 133,143.578687 L133,114.838522 Z" id="Fill-66" fill="#1E252B"></path>
                    <polygon id="Fill-68" fill="#6EDBD5" points="78 106.145344 111.858342 125.704561 140.876243 108.970165 106.99091 89.3929776"></polygon>
                    <polygon id="Fill-70" fill="#3F7D79" points="111.858342 125.952194 111.858342 131.531075 78 111.970735 78 106.392978"></polygon>
                    <polygon id="Fill-72" fill="#AD8473" points="111 126.127373 111 131.706254 140.028023 114.970735 140.028023 109.392978"></polygon>
                    <polygon id="Fill-74" fill="#2C343D" points="107 128.597288 111.867432 131.403014 111.867432 81.1638853 107 78.3929776"></polygon>
                    <polygon id="Fill-76" fill="#2C343D" points="135.171084 111.953547 130 114.976049 130 77.5042116 135.171084 74.3929776"></polygon>
                    <polygon id="Fill-78" fill="#333E48" points="134.923351 84.3929776 117 94.7274413 117 100.156938 134.923351 89.8247205"></polygon>
                    <polygon id="Fill-80" fill="#47515A" points="116.841565 95.5185664 112 92.7263181 129.923351 82.3929776 134.764916 85.1841027"></polygon>
                    <polygon id="Fill-82" fill="#333E48" points="134.923351 100.392978 117 110.725195 117 116.155815 134.923351 105.823597"></polygon>
                    <polygon id="Fill-84" fill="#47515A" points="116.841565 110.517443 112 107.726318 129.923351 97.3929776 134.764916 100.185226"></polygon>
                    <path d="M134.474562,111.432141 L116.551212,121.762112 L116.551212,84.3295856 L134.474562,73.9962451 L134.474562,111.432141 Z M111,81.1273733 L111,131.366502 L140.026899,114.632107 L140.026899,64.3929776 L111,81.1273733 Z" id="Fill-86" fill="#515962"></path>
                    <polygon id="Fill-88" fill="#737A81" points="107 79.1464675 111.867432 81.9173752 140.895455 65.1829795 136.052765 62.3929776"></polygon>
                </g>
                <path d="M253.814417,176.4728 C253.814417,175.675336 252.442359,175.026132 250.748655,175.026132 C249.054951,175.026132 247.681768,175.675336 247.681768,176.4728 L247.681768,205.210719 C247.681768,206.00706 249.054951,206.657386 250.748655,206.657386 C252.442359,206.657386 253.814417,206.00706 253.814417,205.210719 L253.814417,176.4728 Z" id="Fill-90" fill="#1E252B"></path>
                <path d="M224.789093,193.11779 C224.789093,192.320326 223.414786,191.675615 221.723331,191.675615 C220.029627,191.675615 218.656444,192.320326 218.656444,193.11779 L218.656444,221.861324 C218.656444,222.655419 220.029627,223.306869 221.723331,223.306869 C223.414786,223.306869 224.789093,222.655419 224.789093,221.861324 L224.789093,193.11779 Z" id="Fill-92" fill="#1E252B"></path>
                <path d="M200.562148,179.165646 C200.562148,178.364812 199.19009,177.718979 197.495261,177.718979 C195.804931,177.718979 194.428374,178.364812 194.428374,179.165646 L194.428374,207.904688 C194.428374,208.703275 195.804931,209.351356 197.495261,209.351356 C199.19009,209.351356 200.562148,208.703275 200.562148,207.904688 L200.562148,179.165646 Z" id="Fill-94" fill="#1E252B"></path>
                <polygon id="Fill-96" fill="#2C343D" points="255.616649 176.926906 250.746968 179.732632 250.746968 129.494626 255.616649 126.722595"></polygon>
                <polygon id="Fill-98" fill="#2C343D" points="226.970216 159.585538 232.1413 162.603548 232.1413 125.13508 226.970216 122.020476"></polygon>
                <polygon id="Fill-100" fill="#333E48" points="227.271169 138.249324 245.193395 148.580418 245.193395 143.152045 227.271169 132.818705"></polygon>
                <polygon id="Fill-102" fill="#47515A" points="245.192832 143.15227 250.037772 140.360021 232.113296 130.027804 227.270606 132.818929"></polygon>
                <polygon id="Fill-104" fill="#333E48" points="227.271169 153.817063 245.193395 164.150404 245.193395 158.720907 227.271169 148.387567"></polygon>
                <polygon id="Fill-106" fill="#47515A" points="245.192832 158.721132 250.037772 155.928884 232.113296 145.59442 227.270606 148.387792"></polygon>
                <path d="M227.271169,122.363386 L245.193395,132.69448 L245.193395,170.128129 L227.271169,159.799281 L227.271169,122.363386 Z M221.719957,112.760118 L221.719957,162.999247 L250.746856,179.73252 L250.746856,129.494514 L221.719957,112.760118 Z" id="Fill-108" fill="#515962"></path>
                <polygon id="Fill-110" fill="#737A81" points="255.616649 126.722371 250.746968 129.494402 221.72007 112.760006 226.561635 109.968881"></polygon>
                <polygon id="Fill-112" fill="#6EDBD5" points="250.749105 174.156222 221.723331 190.888372 192.70318 174.156222 221.658102 157.380269"></polygon>
                <polygon id="Fill-114" fill="#A0E6E1" points="221.723781 190.888933 221.723781 196.466691 250.749555 179.732295 250.749555 174.156784"></polygon>
                <polygon id="Fill-116" fill="#3F7D79" points="221.723781 190.888933 221.723781 196.466691 192.695758 179.732295 192.695758 174.156784"></polygon>
                <path d="M164.056409,232.744129 C164.056409,238.804858 174.476177,243.72218 187.328537,243.72218 C200.180896,243.72218 210.604038,238.804858 210.604038,232.744129 L210.604038,228.371554 L164.056409,228.371554 L164.056409,232.744129 Z" id="Fill-118" fill="#47515A"></path>
                <path d="M210.603701,228.372003 C210.603701,222.309028 200.180559,217.396198 187.329324,217.396198 C174.47584,217.396198 164.056072,222.309028 164.056072,228.372003 C164.056072,234.432732 174.47584,239.348931 187.329324,239.348931 C200.180559,239.348931 210.603701,234.432732 210.603701,228.372003" id="Fill-120" fill="#333E48"></path>
                <path d="M182.464704,179.71511 C182.464704,178.449276 184.643127,177.421558 187.328762,177.421558 C190.011023,177.421558 192.19057,178.449276 192.19057,179.71511 L192.19057,228.371666 C192.19057,229.638623 190.011023,230.665218 187.328762,230.665218 C184.643127,230.665218 182.464704,229.638623 182.464704,228.371666 L182.464704,179.71511 Z" id="Fill-122" fill="#47515A"></path>
                <path d="M143.791001,183.550914 C143.791001,194.888385 163.284346,204.082812 187.329099,204.082812 C211.370479,204.082812 230.864948,194.888385 230.864948,183.550914 L230.864948,175.37185 L143.791001,175.37185 L143.791001,183.550914 Z" id="Fill-124" fill="#B36E1C"></path>
                <path d="M230.864723,175.371513 C230.864723,164.029549 211.370254,154.839615 187.328874,154.839615 C163.284121,154.839615 143.790776,164.029549 143.790776,175.371513 C143.790776,186.711231 163.284121,195.904535 187.328874,195.904535 C211.370254,195.904535 230.864723,186.711231 230.864723,175.371513" id="Fill-126" fill="#E8A155"></path>
                <path d="M193.380437,175.371513 C193.380437,173.793432 190.671185,172.519736 187.328762,172.519736 C183.986339,172.519736 181.275962,173.793432 181.275962,175.371513 C181.275962,176.949594 183.986339,178.224414 187.328762,178.224414 C190.671185,178.224414 193.380437,176.949594 193.380437,175.371513" id="Fill-128" fill="#B36E1C"></path>
                <path d="M173.842107,189.558403 C167.74657,189.558403 163.32337,186.95822 163.32337,183.374124 C163.32337,179.790027 167.74657,177.187598 173.842107,177.187598 C179.934269,177.187598 184.359718,179.790027 184.359718,183.374124 C184.359718,186.95822 179.934269,189.558403 173.842107,189.558403" id="Fill-130" fill="#FFFFFF"></path>
                <path d="M165.648896,183.374236 C165.648896,181.240177 169.31634,179.508219 173.841882,179.508219 C178.362925,179.508219 182.035992,181.240177 182.035992,183.374236 C182.035992,185.503803 178.362925,187.236884 173.841882,187.236884 C169.31634,187.236884 165.648896,185.503803 165.648896,183.374236" id="Fill-132" fill="#E0E1E1"></path>
                <path d="M202.154635,173.393914 C196.061348,173.393914 191.637024,170.793731 191.637024,167.210757 C191.637024,163.624414 196.061348,161.024231 202.154635,161.024231 C208.247922,161.024231 212.672247,163.624414 212.672247,167.210757 C212.672247,170.793731 208.247922,173.393914 202.154635,173.393914" id="Fill-134" fill="#FFFFFF"></path>
                <path d="M193.961425,167.21087 C193.961425,165.07681 197.627744,163.341483 202.15441,163.341483 C206.679952,163.341483 210.35077,165.07681 210.35077,167.21087 C210.35077,169.340436 206.679952,171.073517 202.15441,171.073517 C197.627744,171.073517 193.961425,169.340436 193.961425,167.21087" id="Fill-136" fill="#E0E1E1"></path>
                <path d="M182.168137,191.044607 L182.168137,191.979101 C182.168137,192.84171 183.652659,193.54595 185.483569,193.54595 C187.31223,193.54595 188.797876,192.84171 188.797876,191.979101 L188.797876,191.044607 L182.168137,191.044607 Z" id="Fill-138" fill="#7688B7"></path>
                <path d="M182.168137,182.49242 L182.168137,191.044383 C182.168137,191.903622 183.652659,192.605616 185.483569,192.605616 C187.31223,192.605616 188.797876,191.903622 188.797876,191.044383 L188.797876,182.49242 L182.168137,182.49242 Z" id="Fill-140" fill="#FFFFFF"></path>
                <path d="M182.168137,182.49242 C182.168137,181.629811 183.652659,180.93231 185.483569,180.93231 C187.31223,180.93231 188.797876,181.629811 188.797876,182.49242 C188.797876,183.356153 187.31223,184.057023 185.483569,184.057023 C183.652659,184.057023 182.168137,183.356153 182.168137,182.49242" id="Fill-142" fill="#C7D5EE"></path>
                <path d="M187.346531,159.517473 L187.346531,160.45309 C187.346531,161.314576 188.829928,162.018815 190.661963,162.018815 C192.488374,162.018815 193.975146,161.314576 193.975146,160.45309 L193.975146,159.517473 L187.346531,159.517473 Z" id="Fill-144" fill="#7688B7"></path>
                <path d="M187.346531,150.96742 L187.346531,159.517136 C187.346531,160.377499 188.829928,161.080616 190.661963,161.080616 C192.488374,161.080616 193.975146,160.377499 193.975146,159.517136 L193.975146,150.96742 L187.346531,150.96742 Z" id="Fill-146" fill="#FFFFFF"></path>
                <path d="M187.346531,150.96742 C187.346531,150.102564 188.829928,149.401694 190.661963,149.401694 C192.488374,149.401694 193.975146,150.102564 193.975146,150.96742 C193.975146,151.830029 192.488374,152.529776 190.661963,152.529776 C188.829928,152.529776 187.346531,151.830029 187.346531,150.96742" id="Fill-148" fill="#C7D5EE"></path>
                <path d="M176.208907,221.151356 C176.208907,220.355015 174.836849,219.708058 173.143144,219.708058 C171.44944,219.708058 170.077382,220.355015 170.077382,221.151356 L170.077382,249.892645 C170.077382,250.692355 171.44944,251.337066 173.143144,251.337066 C174.836849,251.337066 176.208907,250.692355 176.208907,249.892645 L176.208907,221.151356 Z" id="Fill-150" fill="#1E252B"></path>
                <path d="M147.186844,237.797357 C147.186844,237.001016 145.813661,236.352936 144.119957,236.352936 C142.427377,236.352936 141.054195,237.001016 141.054195,237.797357 L141.054195,266.538645 C141.054195,267.339479 142.427377,267.985313 144.119957,267.985313 C145.813661,267.985313 147.186844,267.339479 147.186844,266.538645 L147.186844,237.797357 Z" id="Fill-152" fill="#1E252B"></path>
                <path d="M122.962148,223.845326 C122.962148,223.046738 121.586717,222.398658 119.895261,222.398658 C118.201557,222.398658 116.830624,223.046738 116.830624,223.845326 L116.830624,252.584367 C116.830624,253.382955 118.201557,254.029912 119.895261,254.029912 C121.586717,254.029912 122.962148,253.382955 122.962148,252.584367 L122.962148,223.845326 Z" id="Fill-154" fill="#1E252B"></path>
                <polygon id="Fill-156" fill="#6EDBD5" points="177.981448 216.010407 144.120857 235.567377 115.10408 218.837474 148.989413 199.254671"></polygon>
                <polygon id="Fill-158" fill="#A0E6E1" points="144.120407 235.56749 144.120407 241.147494 177.980998 221.587154 177.980998 216.01052"></polygon>
                <polygon id="Fill-160" fill="#AD8473" points="144.120407 235.56749 144.120407 241.147494 115.093508 224.411975 115.093508 218.836464"></polygon>
                <polygon id="Fill-162" fill="#6B737A" points="148.989076 238.34143 144.120519 241.147157 144.120519 190.909151 148.989076 188.135997"></polygon>
                <polygon id="Fill-164" fill="#6B737A" points="120.344892 220.99894 125.514851 224.018072 125.514851 186.550727 120.344892 183.433877"></polygon>
                <polygon id="Fill-166" fill="#333E48" points="120.646969 199.662726 138.569195 209.996066 138.569195 204.565446 120.646969 194.234352"></polygon>
                <polygon id="Fill-168" fill="#47515A" points="138.568633 204.565671 143.413572 201.775669 125.487972 191.441205 120.646407 194.234577"></polygon>
                <polygon id="Fill-170" fill="#333E48" points="120.646969 215.230577 138.569195 225.562794 138.569195 220.133298 120.646969 209.798834"></polygon>
                <polygon id="Fill-172" fill="#47515A" points="138.568633 220.133522 143.413572 217.342397 125.487972 207.007934 120.646407 209.799059"></polygon>
                <path d="M120.646969,183.776787 L138.569195,194.107881 L138.569195,231.542654 L120.646969,221.211559 L120.646969,183.776787 Z M115.094633,174.174643 L115.094633,224.412649 L144.120407,241.147044 L144.120407,190.909038 L115.094633,174.174643 Z" id="Fill-174" fill="#515962"></path>
                <polygon id="Fill-176" fill="#737A81" points="148.989076 188.135772 144.120519 190.908926 115.093621 174.17453 119.936311 171.382282"></polygon>
                <path d="M139.126566,94.2244641 C139.126566,93.4269998 137.753383,92.7777964 136.058554,92.7777964 C134.367099,92.7777964 132.995041,93.4269998 132.995041,94.2244641 L132.995041,122.964629 C132.995041,123.76097 134.367099,124.411297 136.058554,124.411297 C137.753383,124.411297 139.126566,123.76097 139.126566,122.964629 L139.126566,94.2244641 Z" id="Fill-178" fill="#1E252B"></path>
                <path d="M110.102366,110.870465 C110.102366,110.073 108.726934,109.42829 107.034355,109.42829 C105.341775,109.42829 103.969717,110.073 103.969717,110.870465 L103.969717,139.613999 C103.969717,140.406971 105.341775,141.05842 107.034355,141.05842 C108.726934,141.05842 110.102366,140.406971 110.102366,139.613999 L110.102366,110.870465 Z" id="Fill-180" fill="#1E252B"></path>
                <path d="M85.8754214,96.918321 C85.8754214,96.1197335 84.5011142,95.4716533 82.8085345,95.4716533 C81.1170794,95.4716533 79.7416475,96.1197335 79.7416475,96.918321 L79.7416475,125.657363 C79.7416475,126.454827 81.1170794,127.102907 82.8085345,127.102907 C84.5011142,127.102907 85.8754214,126.454827 85.8754214,125.657363 L85.8754214,96.918321 Z" id="Fill-182" fill="#1E252B"></path>
                <polygon id="Fill-184" fill="#2C343D" points="140.926661 94.6807035 136.05698 97.4853069 136.05698 47.247301 140.926661 44.4752701"></polygon>
                <polygon id="Fill-186" fill="#2C343D" points="112.281352 77.33709 117.452436 80.3562226 117.452436 42.8877545 112.281352 39.7731509"></polygon>
                <polygon id="Fill-188" fill="#333E48" points="112.582305 56.0019992 130.505656 66.3342165 130.505656 60.9035968 112.582305 50.5713794"></polygon>
                <polygon id="Fill-190" fill="#47515A" points="130.505093 60.9039337 135.348908 58.1128086 117.425557 47.7794681 112.581743 50.5717164"></polygon>
                <polygon id="Fill-192" fill="#333E48" points="112.582305 71.5708614 130.505656 81.9030787 130.505656 76.4713358 112.582305 66.1391185"></polygon>
                <polygon id="Fill-194" fill="#47515A" points="130.505093 76.4716728 135.348908 73.6816708 117.425557 63.3472071 112.581743 66.1394555"></polygon>
                <path d="M112.582305,40.1150497 L130.505656,50.4483902 L130.505656,87.8831626 L112.582305,77.5520685 L112.582305,40.1150497 Z M107.031093,30.5129054 L107.031093,80.7542808 L136.056867,97.4853069 L136.056867,47.247301 L107.031093,30.5129054 Z" id="Fill-196" fill="#515962"></path>
                <polygon id="Fill-198" fill="#737A81" points="140.926661 44.4750455 136.05698 47.2470764 107.031206 30.5126807 111.872771 27.7215556"></polygon>
                <polygon id="Fill-200" fill="#6EDBD5" points="136.059117 91.9100204 107.034467 108.641047 78.0154412 91.9100204 106.968114 75.1329436"></polygon>
                <polygon id="Fill-202" fill="#A0E6E1" points="107.034917 108.641608 107.034917 114.218242 136.059566 97.48497 136.059566 91.910582"></polygon>
                <polygon id="Fill-204" fill="#3F7D79" points="107.034917 108.641608 107.034917 114.218242 78.0091432 97.48497 78.0091432 91.910582"></polygon>
                <path d="M49.3664209,150.496916 C49.3664209,156.557645 59.786189,161.474967 72.639673,161.474967 C85.4931571,161.474967 95.9174238,156.557645 95.9174238,150.496916 L95.9174238,146.124341 L49.3664209,146.124341 L49.3664209,150.496916 Z" id="Fill-206" fill="#47515A"></path>
                <path d="M95.9169739,146.12479 C95.9169739,140.060692 85.4927072,135.147862 72.6403478,135.147862 C59.7857391,135.147862 49.365971,140.060692 49.365971,146.12479 C49.365971,152.185519 59.7857391,157.100595 72.6403478,157.100595 C85.4927072,157.100595 95.9169739,152.185519 95.9169739,146.12479" id="Fill-208" fill="#333E48"></path>
                <path d="M67.7779768,97.4656511 C67.7779768,96.2009401 69.9552754,95.1743452 72.6397855,95.1743452 C75.3242957,95.1743452 77.5038435,96.2009401 77.5038435,97.4656511 L77.5038435,146.124453 C77.5038435,147.390287 75.3242957,148.418005 72.6397855,148.418005 C69.9552754,148.418005 67.7779768,147.390287 67.7779768,146.124453 L67.7779768,97.4656511 Z" id="Fill-210" fill="#47515A"></path>
                <path d="M29.103149,101.303589 C29.103149,112.642183 48.5964939,121.834364 72.6401229,121.834364 C96.6826272,121.834364 116.177097,112.642183 116.177097,101.303589 L116.177097,93.1234017 L29.103149,93.1234017 L29.103149,101.303589 Z" id="Fill-212" fill="#B36E1C"></path>
                <path d="M116.176984,93.1231771 C116.176984,81.7823359 96.6825148,72.5912788 72.6400104,72.5912788 C48.5963814,72.5912788 29.1030365,81.7823359 29.1030365,93.1231771 C29.1030365,104.464018 48.5963814,113.657322 72.6400104,113.657322 C96.6825148,113.657322 116.176984,104.464018 116.176984,93.1231771" id="Fill-214" fill="#E8A155"></path>
                <path d="M78.692698,93.1231771 C78.692698,91.5462195 75.9834458,90.2702765 72.639898,90.2702765 C69.2974748,90.2702765 66.5882226,91.5462195 66.5882226,93.1231771 C66.5882226,94.7023811 69.2974748,95.9772008 72.639898,95.9772008 C75.9834458,95.9772008 78.692698,94.7023811 78.692698,93.1231771" id="Fill-216" fill="#B36E1C"></path>
                <path d="M59.1532429,107.308944 C53.0588313,107.308944 48.6356313,104.711008 48.6356313,101.125788 C48.6356313,97.5428142 53.0588313,94.9403849 59.1532429,94.9403849 C65.2476545,94.9403849 69.6719791,97.5428142 69.6719791,101.125788 C69.6719791,104.711008 65.2476545,107.308944 59.1532429,107.308944" id="Fill-218" fill="#FFFFFF"></path>
                <path d="M50.9600325,101.1259 C50.9600325,98.9929638 54.6274759,97.2598828 59.153018,97.2598828 C63.6774354,97.2598828 67.3471281,98.9929638 67.3471281,101.1259 C67.3471281,103.25659 63.6774354,104.989671 59.153018,104.989671 C54.6274759,104.989671 50.9600325,103.25659 50.9600325,101.1259" id="Fill-220" fill="#E0E1E1"></path>
                <path d="M87.4667838,91.1455779 C81.3734968,91.1455779 76.9480475,88.5453949 76.9480475,84.9624214 C76.9480475,81.3772015 81.3734968,78.7758954 87.4667838,78.7758954 C93.5600707,78.7758954 97.9843954,81.3772015 97.9843954,84.9624214 C97.9843954,88.5453949 93.5600707,91.1455779 87.4667838,91.1455779" id="Fill-222" fill="#FFFFFF"></path>
                <path d="M79.2736858,84.9625337 C79.2736858,82.8295975 82.9400046,81.0953934 87.4666713,81.0953934 C91.9899641,81.0953934 95.6607814,82.8295975 95.6607814,84.9625337 C95.6607814,87.0932236 91.9899641,88.8251813 87.4666713,88.8251813 C82.9400046,88.8251813 79.2736858,87.0932236 79.2736858,84.9625337" id="Fill-224" fill="#E0E1E1"></path>
                <path d="M67.4825345,108.797394 L67.4825345,109.733011 C67.4825345,110.59562 68.964807,111.297614 70.7957171,111.297614 C72.6232533,111.297614 74.1088997,110.59562 74.1088997,109.733011 L74.1088997,108.797394 L67.4825345,108.797394 Z" id="Fill-226" fill="#7688B7"></path>
                <path d="M67.4825345,100.246218 L67.4825345,108.797058 C67.4825345,109.65742 68.964807,110.359414 70.7957171,110.359414 C72.6232533,110.359414 74.1088997,109.65742 74.1088997,108.797058 L74.1088997,100.246218 L67.4825345,100.246218 Z" id="Fill-228" fill="#FFFFFF"></path>
                <path d="M67.4825345,100.246218 C67.4825345,99.3813626 68.964807,98.6827389 70.7957171,98.6827389 C72.6232533,98.6827389 74.1088997,99.3813626 74.1088997,100.246218 C74.1088997,101.108828 72.6232533,101.808574 70.7957171,101.808574 C68.964807,101.808574 67.4825345,101.108828 67.4825345,100.246218" id="Fill-230" fill="#C7D5EE"></path>
                <path d="M72.6598041,77.2712712 L72.6598041,78.2068877 C72.6598041,79.069497 74.1420765,79.7703671 75.9729867,79.7703671 C77.8005229,79.7703671 79.2872939,79.069497 79.2872939,78.2068877 L79.2872939,77.2712712 L72.6598041,77.2712712 Z" id="Fill-232" fill="#7688B7"></path>
                <path d="M72.6598041,68.7200949 L72.6598041,77.2709342 C72.6598041,78.1301739 74.1420765,78.8321672 75.9729867,78.8321672 C77.8005229,78.8321672 79.2872939,78.1301739 79.2872939,77.2709342 L79.2872939,68.7200949 L72.6598041,68.7200949 Z" id="Fill-234" fill="#FFFFFF"></path>
                <path d="M72.6598041,68.7200949 C72.6598041,67.8563624 74.1420765,67.1554924 75.9729867,67.1554924 C77.8005229,67.1554924 79.2872939,67.8563624 79.2872939,68.7200949 C79.2872939,69.5827042 77.8005229,70.2813279 75.9729867,70.2813279 C74.1420765,70.2813279 72.6598041,69.5827042 72.6598041,68.7200949" id="Fill-236" fill="#C7D5EE"></path>
                <path d="M61.5221797,138.904144 C61.5221797,138.107802 60.1478725,137.460846 58.4541681,137.460846 C56.7615884,137.460846 55.3884058,138.107802 55.3884058,138.904144 L55.3884058,167.644308 C55.3884058,168.442896 56.7615884,169.08873 58.4541681,169.08873 C60.1478725,169.08873 61.5221797,168.442896 61.5221797,167.644308 L61.5221797,138.904144 Z" id="Fill-238" fill="#1E252B"></path>
                <path d="M32.4979803,155.551267 C32.4979803,154.754926 31.1259223,154.105723 29.4333426,154.105723 C27.7396383,154.105723 26.3675803,154.754926 26.3675803,155.551267 L26.3675803,184.290309 C26.3675803,185.092266 27.7396383,185.7381 29.4333426,185.7381 C31.1259223,185.7381 32.4979803,185.092266 32.4979803,184.290309 L32.4979803,155.551267 Z" id="Fill-240" fill="#1E252B"></path>
                <path d="M8.27429681,141.599124 C8.27429681,140.799413 6.89886493,140.152456 5.20740986,140.152456 C3.51370551,140.152456 2.1405229,140.799413 2.1405229,141.599124 L2.1405229,170.337042 C2.1405229,171.134507 3.51370551,171.781464 5.20740986,171.781464 C6.89886493,171.781464 8.27429681,171.134507 8.27429681,170.337042 L8.27429681,141.599124 Z" id="Fill-242" fill="#1E252B"></path>
                <polygon id="Fill-244" fill="#6EDBD5" points="63.293709 133.764205 29.4342423 153.321175 0.414091594 136.589026 34.3016742 117.008469"></polygon>
                <polygon id="Fill-246" fill="#A0E6E1" points="29.4337925 153.321288 29.4337925 158.900168 63.2932591 139.338706 63.2932591 133.764318"></polygon>
                <polygon id="Fill-248" fill="#AD8473" points="29.4337925 153.321288 29.4337925 158.900168 0.405769275 142.166896 0.405769275 136.589138"></polygon>
                <polygon id="Fill-250" fill="#6B737A" points="34.3013368 156.093094 29.4339049 158.899944 29.4339049 108.660815 34.3013368 105.888784"></polygon>
                <polygon id="Fill-252" fill="#6B737A" points="5.65715246 138.750604 10.8271119 141.769736 10.8271119 104.301268 5.65715246 101.187788"></polygon>
                <polygon id="Fill-254" fill="#333E48" points="5.95810551 117.4154 23.8814562 127.747618 23.8814562 122.318121 5.95810551 111.984781"></polygon>
                <polygon id="Fill-256" fill="#47515A" points="23.8808939 122.318458 28.7235838 119.528456 10.800233 109.192869 5.95754319 111.985118"></polygon>
                <polygon id="Fill-258" fill="#333E48" points="5.95810551 132.982129 23.8814562 143.317716 23.8814562 137.885973 5.95810551 127.552632"></polygon>
                <polygon id="Fill-260" fill="#47515A" points="23.8808939 137.886197 28.7235838 135.093949 10.800233 124.760608 5.95754319 127.552857"></polygon>
                <path d="M5.95810551,101.529574 L23.8814562,111.861792 L23.8814562,149.297687 L5.95810551,138.964347 L5.95810551,101.529574 Z M0.405769275,91.9263067 L0.405769275,142.167682 L29.4337925,158.899831 L29.4337925,108.660702 L0.405769275,91.9263067 Z" id="Fill-262" fill="#515962"></path>
                <polygon id="Fill-264" fill="#737A81" points="34.3013368 105.888447 29.4339049 108.660478 0.405881739 91.926082 5.24857159 89.1338337"></polygon>
            </g>
        </g>
    </g>
</svg>